REM DIRINDEX 1\2,1\3
REM DIRNAME folder01,folder02,folder03
TITLE ""
FILE "2701-2720.mp3" MP3
  TRACK 01 AUDIO
    TITLE "0:"
    INDEX 01 00:00:00
  TRACK 02 AUDIO
    TITLE "2:cjc039_4401"
    INDEX 01 00:00:25
  TRACK 03 AUDIO
    TITLE "0:"
    INDEX 01 00:01:38
  TRACK 04 AUDIO
    TITLE "3:cjc039_4402"
    INDEX 01 00:02:14
  TRACK 05 AUDIO
    TITLE "0:"
    INDEX 01 00:06:18
  TRACK 06 AUDIO
    TITLE "2:cjc039_4403"
    INDEX 01 00:07:66
  TRACK 07 AUDIO
    TITLE "0:"
    INDEX 01 00:09:18
  TRACK 08 AUDIO
    TITLE "3:cjc039_4404"
    INDEX 01 00:09:73
  TRACK 09 AUDIO
    TITLE "0:"
    INDEX 01 00:14:17
  TRACK 10 AUDIO
    TITLE "2:cjc039_4405"
    INDEX 01 00:15:64
  TRACK 11 AUDIO
    TITLE "0:"
    INDEX 01 00:17:04
  TRACK 12 AUDIO
    TITLE "3:cjc039_4406"
    INDEX 01 00:17:53
  TRACK 13 AUDIO
    TITLE "0:"
    INDEX 01 00:21:37
  TRACK 14 AUDIO
    TITLE "2:cjc039_4407"
    INDEX 01 00:23:18
  TRACK 15 AUDIO
    TITLE "0:"
    INDEX 01 00:24:33
  TRACK 16 AUDIO
    TITLE "3:cjc039_4408"
    INDEX 01 00:25:13
  TRACK 17 AUDIO
    TITLE "0:"
    INDEX 01 00:29:44
  TRACK 18 AUDIO
    TITLE "2:cjc039_4409"
    INDEX 01 00:31:22
  TRACK 19 AUDIO
    TITLE "0:"
    INDEX 01 00:32:21
  TRACK 20 AUDIO
    TITLE "3:cjc039_4410"
    INDEX 01 00:33:03
  TRACK 21 AUDIO
    TITLE "0:"
    INDEX 01 00:37:08
  TRACK 22 AUDIO
    TITLE "2:cjc039_4411"
    INDEX 01 00:38:59
  TRACK 23 AUDIO
    TITLE "0:"
    INDEX 01 00:39:66
  TRACK 24 AUDIO
    TITLE "3:cjc039_4412"
    INDEX 01 00:40:42
  TRACK 25 AUDIO
    TITLE "0:"
    INDEX 01 00:44:09
  TRACK 26 AUDIO
    TITLE "2:cjc039_4413"
    INDEX 01 00:45:67
  TRACK 27 AUDIO
    TITLE "0:"
    INDEX 01 00:46:74
  TRACK 28 AUDIO
    TITLE "3:cjc039_4414"
    INDEX 01 00:47:54
  TRACK 29 AUDIO
    TITLE "0:"
    INDEX 01 00:50:42
  TRACK 30 AUDIO
    TITLE "2:cjc039_4415"
    INDEX 01 00:52:20
  TRACK 31 AUDIO
    TITLE "0:"
    INDEX 01 00:53:49
  TRACK 32 AUDIO
    TITLE "3:cjc039_4416"
    INDEX 01 00:54:25
  TRACK 33 AUDIO
    TITLE "0:"
    INDEX 01 00:58:54
  TRACK 34 AUDIO
    TITLE "2:cjc039_4417"
    INDEX 01 01:00:31
  TRACK 35 AUDIO
    TITLE "0:"
    INDEX 01 01:01:38
  TRACK 36 AUDIO
    TITLE "3:cjc039_4418"
    INDEX 01 01:02:16
  TRACK 37 AUDIO
    TITLE "0:"
    INDEX 01 01:05:42
  TRACK 38 AUDIO
    TITLE "2:cjc039_4419"
    INDEX 01 01:07:19
  TRACK 39 AUDIO
    TITLE "0:"
    INDEX 01 01:08:44
  TRACK 40 AUDIO
    TITLE "3:cjc039_4420"
    INDEX 01 01:09:24
  TRACK 41 AUDIO
    TITLE "0:"
    INDEX 01 01:13:00
  TRACK 42 AUDIO
    TITLE "2:cjc039_4421"
    INDEX 01 01:14:55
  TRACK 43 AUDIO
    TITLE "0:"
    INDEX 01 01:15:72
  TRACK 44 AUDIO
    TITLE "3:cjc039_4422"
    INDEX 01 01:16:48
  TRACK 45 AUDIO
    TITLE "0:"
    INDEX 01 01:20:12
  TRACK 46 AUDIO
    TITLE "2:cjc039_4423"
    INDEX 01 01:21:63
  TRACK 47 AUDIO
    TITLE "0:"
    INDEX 01 01:23:26
  TRACK 48 AUDIO
    TITLE "3:cjc039_4424"
    INDEX 01 01:24:06
  TRACK 49 AUDIO
    TITLE "0:"
    INDEX 01 01:28:29
  TRACK 50 AUDIO
    TITLE "2:cjc039_4425"
    INDEX 01 01:30:05
  TRACK 51 AUDIO
    TITLE "0:"
    INDEX 01 01:31:06
  TRACK 52 AUDIO
    TITLE "3:cjc039_4426"
    INDEX 01 01:31:63
  TRACK 53 AUDIO
    TITLE "0:"
    INDEX 01 01:34:65
  TRACK 54 AUDIO
    TITLE "2:cjc039_4427"
    INDEX 01 01:36:43
  TRACK 55 AUDIO
    TITLE "0:"
    INDEX 01 01:37:58
  TRACK 56 AUDIO
    TITLE "3:cjc039_4428"
    INDEX 01 01:38:36
  TRACK 57 AUDIO
    TITLE "0:"
    INDEX 01 01:42:67
  TRACK 58 AUDIO
    TITLE "2:cjc039_4429"
    INDEX 01 01:44:40
  TRACK 59 AUDIO
    TITLE "0:"
    INDEX 01 01:45:45
  TRACK 60 AUDIO
    TITLE "3:cjc039_4430"
    INDEX 01 01:46:23
  TRACK 61 AUDIO
    TITLE "0:"
    INDEX 01 01:50:17
  TRACK 62 AUDIO
    TITLE "2:cjc039_4431"
    INDEX 01 01:51:70
  TRACK 63 AUDIO
    TITLE "0:"
    INDEX 01 01:53:49
  TRACK 64 AUDIO
    TITLE "3:cjc039_4432"
    INDEX 01 01:54:21
  TRACK 65 AUDIO
    TITLE "0:"
    INDEX 01 01:59:06
  TRACK 66 AUDIO
    TITLE "2:cjc039_4433"
    INDEX 01 02:00:57
  TRACK 67 AUDIO
    TITLE "0:"
    INDEX 01 02:01:70
  TRACK 68 AUDIO
    TITLE "3:cjc039_4434"
    INDEX 01 02:02:46
  TRACK 69 AUDIO
    TITLE "0:"
    INDEX 01 02:05:72
  TRACK 70 AUDIO
    TITLE "2:cjc039_4435"
    INDEX 01 02:07:51
  TRACK 71 AUDIO
    TITLE "0:"
    INDEX 01 02:09:07
  TRACK 72 AUDIO
    TITLE "3:cjc039_4436"
    INDEX 01 02:09:62
  TRACK 73 AUDIO
    TITLE "0:"
    INDEX 01 02:14:16
  TRACK 74 AUDIO
    TITLE "2:cjc039_4437"
    INDEX 01 02:15:66
  TRACK 75 AUDIO
    TITLE "0:"
    INDEX 01 02:16:64
  TRACK 76 AUDIO
    TITLE "3:cjc039_4438"
    INDEX 01 02:17:42
  TRACK 77 AUDIO
    TITLE "0:"
    INDEX 01 02:20:40
  TRACK 78 AUDIO
    TITLE "2:cjc039_4439"
    INDEX 01 02:22:15
  TRACK 79 AUDIO
    TITLE "0:"
    INDEX 01 02:23:58
  TRACK 80 AUDIO
    TITLE "3:cjc039_4440"
    INDEX 01 02:24:32
  TRACK 81 AUDIO
    TITLE "0:"
    INDEX 01 02:29:27
